<svg width="24" height="24" viewBox="0 0 24 24" fill="none" xmlns="http://www.w3.org/2000/svg">
<g clip-path="url(#clip0_44_33808)">
<path d="M23 14C22.9982 12.4781 22.4182 11.0138 21.3773 9.90348C20.3365 8.79319 18.9126 8.11992 17.394 8.01998C17.7884 7.25468 17.996 6.40691 18 5.54598C17.9357 4.01631 17.2686 2.57427 16.1443 1.53505C15.02 0.495822 13.53 -0.0560744 12 -1.78108e-05C10.47 -0.0560744 8.98002 0.495822 7.85572 1.53505C6.73143 2.57427 6.06424 4.01631 5.99999 5.54598C6.00405 6.40702 6.21206 7.25485 6.60699 8.01998C5.07002 8.14371 3.63968 8.85441 2.61275 10.0046C1.58581 11.1548 1.04111 12.6562 1.09167 14.1974C1.14222 15.7385 1.78415 17.201 2.88426 18.2814C3.98438 19.3618 5.45821 19.9773 6.99999 20C7.74351 19.9755 8.47469 19.803 9.15083 19.4928C9.82697 19.1825 10.4345 18.7407 10.938 18.193C10.773 20.755 10.156 22 7.99999 22H5.99999C5.73477 22 5.48042 22.1053 5.29288 22.2929C5.10534 22.4804 4.99999 22.7348 4.99999 23C4.99999 23.2652 5.10534 23.5196 5.29288 23.7071C5.48042 23.8946 5.73477 24 5.99999 24H18C18.2652 24 18.5196 23.8946 18.7071 23.7071C18.8946 23.5196 19 23.2652 19 23C19 22.7348 18.8946 22.4804 18.7071 22.2929C18.5196 22.1053 18.2652 22 18 22H16C13.844 22 13.227 20.755 13.062 18.193C13.5655 18.7407 14.173 19.1825 14.8491 19.4928C15.5253 19.803 16.2565 19.9755 17 20C18.5908 19.9984 20.116 19.3657 21.2409 18.2409C22.3657 17.116 22.9984 15.5908 23 14ZM12 1.99998C12.9993 1.94517 13.98 2.28682 14.7289 2.95075C15.4778 3.61468 15.9346 4.54727 16 5.54598C16 7.67898 13.9 9.07998 13.811 9.13898C13.7826 9.16319 13.7559 9.18924 13.731 9.21698C13.0704 9.74438 12.4876 10.3625 12 11.053C11.5123 10.3619 10.9292 9.74345 10.268 9.21598C10.243 9.19698 10.229 9.16898 10.202 9.15098C10.175 9.13298 10.134 9.10498 10.057 9.05098L10.026 9.02598C9.45235 8.63144 8.97318 8.11478 8.62289 7.51309C8.2726 6.91141 8.05987 6.23963 7.99999 5.54598C8.06538 4.54727 8.52215 3.61468 9.27108 2.95075C10.02 2.28682 11.0006 1.94517 12 1.99998ZM11.971 22C11.98 21.984 11.991 21.969 12 21.953C12.009 21.969 12.02 21.984 12.029 22H11.971ZM12.91 14.586C12.8305 14.4113 12.7025 14.2631 12.5411 14.1592C12.3798 14.0553 12.1919 14 12 14C11.8084 13.9998 11.6208 14.0546 11.4594 14.158C11.2981 14.2613 11.1699 14.4088 11.09 14.583C11.075 14.618 9.49099 18 6.99999 18C5.93912 18 4.92171 17.5786 4.17156 16.8284C3.42141 16.0783 2.99999 15.0609 2.99999 14C2.99999 12.9391 3.42141 11.9217 4.17156 11.1716C4.92171 10.4214 5.93912 9.99998 6.99999 9.99998C7.67944 10.0175 8.33601 10.2492 8.87599 10.662C8.95099 10.717 9.00599 10.756 9.04999 10.786C9.90279 11.513 10.5971 12.4075 11.09 13.414C11.1694 13.5887 11.2975 13.7368 11.4589 13.8407C11.6202 13.9447 11.8081 13.9999 12 14C12.1916 14.0002 12.3792 13.9454 12.5405 13.842C12.7019 13.7386 12.8301 13.5911 12.91 13.417C12.925 13.382 14.509 9.99998 17 9.99998C18.0609 9.99998 19.0783 10.4214 19.8284 11.1716C20.5786 11.9217 21 12.9391 21 14C21 15.0609 20.5786 16.0783 19.8284 16.8284C19.0783 17.5786 18.0609 18 17 18C14.509 18 12.925 14.618 12.91 14.586Z" fill="white"/>
</g>
<defs>
<clipPath id="clip0_44_33808">
<rect width="24" height="24" fill="white"/>
</clipPath>
</defs>
</svg>
