<svg width="24" height="24" viewBox="0 0 24 24" fill="none" xmlns="http://www.w3.org/2000/svg">
<path d="M10.9575 0.0436265C17.572 -0.515614 23.3847 4.3664 23.9552 10.9715C24.2944 14.8862 22.6909 18.7253 19.6689 21.2343C15.3364 24.8316 9.09192 24.9223 4.65144 21.4913C-0.590807 17.4254 -1.54674 9.88323 2.5237 4.63847C4.55893 2.00852 7.62718 0.345919 10.9575 0.0436265ZM11.0501 0.45172C4.66685 0.965617 -0.0974192 6.55802 0.411387 12.9364C0.920193 19.3147 6.51706 24.0758 12.9003 23.562C19.2989 23.0481 24.0477 17.4708 23.5389 11.0773C23.246 7.44978 21.257 4.18503 18.1888 2.22013C16.0764 0.874929 13.5787 0.255231 11.0501 0.45172Z" fill="#E40707"/>
<path d="M10.3258 1.05612C15.861 0.209711 21.1649 3.62559 22.6759 9.02148C23.5085 11.999 23.0613 15.3545 21.3345 17.9391C19.7618 18.6494 17.9887 18.7704 16.2927 18.6948C13.4557 18.5587 10.6804 17.8181 7.82799 17.7426C6.22449 17.6972 4.57472 17.9088 3.07914 18.5587C-0.54417 13.6314 0.519696 6.69384 5.45357 3.08147C6.87206 2.02346 8.55266 1.3433 10.3258 1.05612ZM11.9909 1.26773C11.7597 1.94788 11.5438 2.62804 11.3125 3.3233C10.5879 3.3233 9.86322 3.30819 9.13855 3.33842C9.72445 3.76163 10.3103 4.18483 10.8962 4.62315C10.6804 5.30331 10.4491 5.98346 10.2333 6.67873C10.8192 6.25552 11.4051 5.83232 11.9909 5.40911C12.5768 5.83232 13.1627 6.25552 13.7486 6.67873C13.5328 5.99857 13.3015 5.30331 13.0857 4.62315C13.6715 4.19995 14.2574 3.77674 14.8433 3.33842C14.1187 3.3233 13.394 3.33842 12.6694 3.33842C12.4381 2.62804 12.2068 1.94788 11.9909 1.26773ZM6.94915 3.943C6.87206 4.29063 6.8258 4.63827 6.74871 4.9859L5.68484 5.12193L6.62536 5.63583C6.56369 5.98346 6.50202 6.34621 6.44034 6.67873C6.70246 6.4369 6.96457 6.19506 7.22668 5.93812C7.53505 6.10438 7.84341 6.28575 8.1672 6.4369C8.01301 6.11949 7.85883 5.78697 7.70465 5.46957C7.96676 5.22773 8.22887 4.97079 8.47556 4.72896C8.12094 4.7743 7.76632 4.81964 7.4117 4.86498C7.25751 4.59292 7.10333 4.27552 6.94915 3.943ZM16.5702 4.91033L15.5063 4.7743C15.7684 5.03125 16.0151 5.27308 16.2773 5.51491C16.1231 5.83231 15.9689 6.16484 15.8147 6.48224L16.7552 5.98346C17.0173 6.22529 17.2794 6.48224 17.5416 6.72407C17.4645 6.37644 17.4182 6.01369 17.3565 5.66606C17.6649 5.4998 17.9733 5.31842 18.2971 5.15216L17.2332 5.01613C17.1561 4.6685 17.1098 4.30575 17.0327 3.97323C16.8786 4.27552 16.7244 4.59292 16.5702 4.91033ZM3.57253 6.4369C3.58795 6.6485 3.60337 6.8601 3.61878 7.07171L3.01747 7.31354L3.6342 7.46469C3.64962 7.67629 3.66504 7.88789 3.68046 8.09949C3.78839 7.91812 3.89631 7.73675 4.01966 7.57049L4.6364 7.70652L4.23552 7.22285L4.57472 6.67873L3.97341 6.92056C3.85006 6.7543 3.71129 6.58804 3.57253 6.4369ZM19.9931 6.92056L19.4072 6.67873L19.7464 7.22285C19.6076 7.38911 19.4688 7.54026 19.3301 7.70652L19.9468 7.57049L20.286 8.09949L20.3323 7.46469L20.949 7.31354L20.3631 7.07171L20.4094 6.4369L19.9931 6.92056ZM5.20687 8.02392C4.52847 8.2053 3.8809 8.6285 3.54169 9.2482C3.51086 11.4247 3.54169 13.6012 3.52627 15.7928C4.03508 16.1404 4.59014 16.3823 5.19146 16.5334C5.88528 16.7148 6.59453 16.6694 7.30377 16.6241C8.01301 16.5787 8.73768 16.3974 9.2619 15.9137C10.0791 15.2033 10.3258 13.9488 9.89405 12.9513C9.66278 12.392 9.15397 11.999 8.61433 11.7572C9.15397 11.4247 9.57027 10.8503 9.53943 10.2004C9.55485 9.0366 8.53724 8.02392 7.4117 7.90301C6.68704 7.82743 5.93154 7.82743 5.20687 8.02392ZM8.25971 7.85766C9.06146 8.14484 9.58569 8.87034 9.86322 9.64118C10.2178 9.64118 10.5725 9.64118 10.9271 9.64118C10.9271 11.9688 10.9271 14.3116 10.9271 16.6392H12.7464C12.7464 14.3116 12.7464 11.9688 12.7464 9.64118C13.0857 9.64118 13.4249 9.64118 13.7486 9.64118C14.2883 8.84011 15.0438 8.15995 15.9689 7.85766C13.394 7.87278 10.8192 7.85766 8.25971 7.85766ZM16.2002 8.09949C15.2134 8.44713 14.4116 9.1424 13.9491 10.0795C13.4403 11.0922 13.3632 12.256 13.5328 13.3594C13.687 14.4023 14.2112 15.3847 15.0592 16.0346C15.861 16.6543 16.9094 16.8508 17.8808 16.7752C18.8675 16.6997 19.9006 16.4276 20.6869 15.7928C20.6869 14.4023 20.6869 13.0117 20.6869 11.6061C19.7001 11.6061 18.7134 11.6061 17.7266 11.6061C17.7266 12.1351 17.7266 12.6792 17.7266 13.2082H18.883C18.883 13.7372 18.883 14.2813 18.883 14.8103C18.2816 15.2184 17.4799 15.2184 16.8015 14.9766C16.0614 14.6894 15.5526 13.9639 15.3984 13.2082C15.2442 12.4374 15.2905 11.6363 15.5834 10.9108C15.861 10.2458 16.4314 9.70163 17.1407 9.5656C18.0195 9.33889 18.9292 9.71675 19.5922 10.276C19.8543 9.77721 20.101 9.27843 20.3785 8.77965C19.2684 7.76697 17.5878 7.64606 16.2002 8.09949Z" fill="#E40707"/>
<path d="M5.68483 9.88413C6.14738 9.32489 7.21125 9.41558 7.51962 10.1108C7.64296 10.4887 7.47336 11.0177 7.04165 11.1235C6.54826 11.2595 6.03945 11.184 5.53065 11.1991C5.56148 10.7759 5.42272 10.2771 5.68483 9.88413ZM5.53065 12.6501C6.1628 12.6803 6.82579 12.5594 7.4271 12.8012C8.30595 13.1489 8.24428 14.6452 7.36543 14.9475C6.76412 15.0231 6.10113 15.0684 5.53065 14.7812C5.53065 14.086 5.53065 13.3605 5.53065 12.6501ZM9.01519 18.2576C12.2376 18.575 15.4446 19.4365 18.6979 19.0586C19.4688 18.9831 20.2243 18.8017 20.9644 18.5145C20.3939 19.2551 19.7926 19.9655 19.0371 20.5247C18.4358 20.6305 17.8345 20.5701 17.2486 20.5096C15.5063 20.2829 13.8411 19.7539 12.176 19.2098C11.1275 18.8924 10.0945 18.4994 9.01519 18.2576ZM6.90288 18.9377C8.29053 18.9679 9.61651 19.4365 10.9425 19.8597C13.1319 20.555 15.2905 21.4014 17.6032 21.5828C16.6164 22.1269 15.5834 22.5652 14.4733 22.807C14.3191 22.8524 14.1958 22.7315 14.057 22.6861C12.6848 21.9304 11.3742 21.0689 10.002 20.2678C9.0152 19.7086 7.99758 19.1947 6.90288 18.9377ZM5.17603 20.7515C6.14738 20.8119 7.13416 20.948 8.013 21.3712C9.01519 21.8095 9.89404 22.4443 10.7883 23.0489C8.75308 22.7919 6.81037 22.006 5.17603 20.7515Z" fill="#E40707"/>
</svg>
