<svg width="41" height="12" viewBox="0 0 41 12" fill="none" xmlns="http://www.w3.org/2000/svg">
<path fill-rule="evenodd" clip-rule="evenodd" d="M3.5284 6.15187C3.5284 4.55801 5.04503 2.48227 7.63441 1.37027C12.1473 -0.594265 14.7367 1.222 15.4026 2.92707C16.0314 4.52094 14.7737 7.37507 12.6652 9.45081C14.1818 8.33881 15.4395 7.18974 16.2903 6.04067C17.4371 4.52094 17.918 3.07534 17.4741 1.92627C16.8452 0.258269 14.2928 -0.297732 11.1116 0.147069C7.93034 0.591869 5.48893 1.40734 3.5284 2.4452C1.30893 3.5572 0.199192 4.85454 0.0142361 6.37427C-0.207711 8.56121 2.15972 11.5265 7.52344 11.8972C10.3348 12.0825 13.0721 12.1567 18.2879 10.8593C17.659 10.8964 3.4914 12.6756 3.5284 6.15187Z" fill="#1CAF4B"/>
<path d="M25.3892 0.592072V2.07474H21.7271V3.59447H25.0193V5.00301H21.7271V6.52274H25.5002V7.96834H20.0625V0.592072H25.3892ZM32.2696 4.18754H33.9342V6.81928C33.1944 7.63474 32.1956 8.04248 30.9009 8.04248C29.8282 8.04248 28.9034 7.67181 28.1636 6.96754C27.4237 6.26328 27.0538 5.33661 27.0538 4.26167C27.0538 3.14967 27.4237 2.26007 28.1636 1.51874C28.9034 0.777405 29.8282 0.406738 30.8639 0.406738C31.9367 0.406738 32.8245 0.740339 33.6013 1.44461L32.7505 2.66781C32.4175 2.37127 32.1216 2.18594 31.8257 2.07474C31.5667 1.96354 31.2338 1.92647 30.9379 1.92647C30.309 1.92647 29.7912 2.14887 29.3473 2.55661C28.9034 2.96434 28.7184 3.55741 28.7184 4.22461C28.7184 4.89181 28.9404 5.48488 29.3473 5.89261C29.7542 6.30034 30.2351 6.52274 30.8269 6.52274C31.3818 6.52274 31.8627 6.41154 32.2326 6.18914V4.18754H32.2696ZM38.891 2.00061V7.96834H37.2634V2.00061H35.1919V0.592072H40.9995V2.00061H38.891Z" fill="#1CAF4B"/>
<path d="M20.1016 9.78462H20.3975V11.638H20.1016V9.78462ZM22.58 9.78462H22.8759V11.638H22.543L21.5072 10.3036V11.638H21.2113V9.78462H21.5072L22.58 11.1561V9.78462ZM24.3555 10.0812V11.638H24.0596V10.0812H23.5047V9.78462H24.9474V10.0812H24.3555ZM26.797 9.78462V10.0812H25.7982V10.563H26.686V10.8225H25.7982V11.3044H26.834V11.6009H25.5023V9.74756H26.797V9.78462ZM28.9794 10.4148C28.9794 10.7113 28.8315 10.8966 28.5725 11.0078L29.0534 11.675H28.6465L28.2026 11.0449H27.7957V11.675H27.4998V9.82169H28.2026C28.4986 9.82169 28.6835 9.85876 28.7945 9.96996C28.9055 10.0441 28.9794 10.1924 28.9794 10.4148ZM28.5725 10.6742C28.6465 10.6372 28.6835 10.526 28.6835 10.4148C28.6835 10.3036 28.6465 10.2294 28.5725 10.1553C28.4986 10.1182 28.3876 10.0812 28.2396 10.0812H27.8327V10.7484H28.2026C28.3876 10.7484 28.4986 10.7113 28.5725 10.6742ZM29.9412 11.2302L29.7563 11.638H29.4233L30.2371 9.78462H30.5701L31.3839 11.638H31.0509L30.866 11.2302H29.9412ZM30.755 10.9337L30.4221 10.1553L30.0892 10.9337H30.755ZM32.7525 11.3785C32.8635 11.3785 32.9375 11.3785 33.0115 11.3414C33.0855 11.3044 33.1594 11.2302 33.2704 11.1561L33.4554 11.3785C33.2704 11.6009 33.0115 11.7121 32.7525 11.7121C32.4566 11.7121 32.2347 11.638 32.0497 11.4526C31.8647 11.2673 31.7908 11.0449 31.7908 10.7854C31.7908 10.526 31.9017 10.2665 32.0867 10.0812C32.2717 9.89583 32.4936 9.82169 32.7895 9.82169C33.0855 9.82169 33.3074 9.93289 33.4924 10.1553L33.3074 10.3777C33.2334 10.3036 33.1225 10.2294 33.0485 10.1924C32.9745 10.1553 32.8635 10.1553 32.7895 10.1553C32.6046 10.1553 32.4566 10.2294 32.3086 10.3406C32.1977 10.4518 32.1237 10.6001 32.1237 10.7854C32.1237 10.9708 32.1977 11.119 32.3086 11.2673C32.4196 11.3044 32.5676 11.3785 32.7525 11.3785ZM34.824 10.0812V11.638H34.5281V10.0812H33.9732V9.78462H35.4159V10.0812H34.824ZM35.9708 9.78462H36.2667V11.638H35.9708V9.78462ZM37.8943 11.638H37.5614L36.8216 9.78462H37.1545L37.7094 11.1561L38.2642 9.78462H38.5971L37.8943 11.638ZM40.4837 9.78462V10.0812H39.4849V10.563H40.3727V10.8225H39.4849V11.3044H40.4837V11.6009H39.152V9.74756H40.4837V9.78462Z" fill="#1CAF4B"/>
<path fill-rule="evenodd" clip-rule="evenodd" d="M8.74214 8.63549C10.4437 8.63549 11.8124 7.26403 11.8124 5.55896C11.8124 3.85389 10.4437 2.48242 8.74214 2.48242C7.04055 2.48242 5.67188 3.85389 5.67188 5.55896C5.70887 7.26403 7.07754 8.63549 8.74214 8.63549Z" fill="#1CAF4B"/>
</svg>
