<svg width="18" height="18" viewBox="0 0 18 18" fill="none" xmlns="http://www.w3.org/2000/svg">
<path d="M11.6297 10.3383C11.3237 10.0341 10.8568 9.97008 10.4864 10.1622L10.1161 9.79399C10.422 9.34575 10.422 8.75344 10.1161 8.2892L10.5347 7.87298C10.6796 7.95302 10.8407 7.98504 11.0017 7.98504C11.5491 7.98504 12 7.5368 12 6.99252C12 6.44823 11.5491 6 11.0017 6C10.4542 6 10.0034 6.44823 10.0034 6.99252C10.0034 7.1526 10.0517 7.31269 10.1161 7.45676L9.69743 7.87298C9.24658 7.56882 8.65081 7.56882 8.18385 7.87298L7.82961 7.5368C8.03893 7.16861 7.95842 6.70437 7.65249 6.40021C7.26604 6.01601 6.65417 6.03202 6.28383 6.40021C5.89738 6.78441 5.91348 7.39273 6.28383 7.76092C6.50925 7.98504 6.84739 8.0971 7.16943 8.01706C7.26604 8.00105 7.34655 7.96903 7.42706 7.92101L7.79741 8.2892C7.49147 8.73743 7.49147 9.32974 7.79741 9.79399L7.42706 10.1782C7.05672 9.97008 6.58976 10.0501 6.28383 10.3543C5.91348 10.7385 5.91348 11.3468 6.28383 11.715C6.65417 12.0832 7.26604 12.0832 7.65249 11.715C7.95842 11.4108 8.02283 10.9466 7.82961 10.5784L8.19995 10.2102C8.65081 10.5144 9.24658 10.5144 9.71353 10.2102L10.0839 10.5784C9.82624 11.0426 10.0034 11.6349 10.4864 11.8911C10.8568 12.0832 11.3237 12.0192 11.6297 11.715C12 11.3308 12 10.7225 11.6297 10.3383ZM11.0017 6.60832C11.2432 6.60832 11.4364 6.80042 11.4364 7.04054C11.4364 7.28067 11.2432 7.47277 11.0017 7.47277C10.7602 7.47277 10.5669 7.28067 10.5669 7.04054C10.5669 6.80042 10.7602 6.60832 11.0017 6.60832ZM7.05672 7.48878C6.83129 7.5368 6.62197 7.39273 6.57366 7.18462C6.52536 6.97651 6.67027 6.75239 6.8796 6.70437C7.10502 6.65634 7.31435 6.80042 7.36265 7.00853C7.42706 7.21664 7.28215 7.44075 7.05672 7.48878ZM7.26604 11.3148C7.10502 11.4749 6.84739 11.4749 6.68638 11.3148C6.52536 11.1547 6.52536 10.8986 6.68638 10.7385C6.84739 10.5784 7.08892 10.5784 7.24994 10.7385C7.42706 10.8826 7.42706 11.1547 7.26604 11.3148ZM8.13555 9.04159C8.15165 8.60937 8.52199 8.24117 8.95674 8.24117C9.4076 8.24117 9.77794 8.60937 9.77794 9.0576C9.77794 9.48983 9.4237 9.87403 8.95674 9.87403C8.48979 9.87403 8.13555 9.48983 8.13555 9.04159ZM10.9373 11.4268C10.7118 11.4268 10.5347 11.2507 10.5347 11.0266C10.5347 10.8025 10.7118 10.6264 10.9373 10.6264C11.1627 10.6264 11.3398 10.8025 11.3398 11.0266C11.3398 11.2507 11.1627 11.4268 10.9373 11.4268Z" fill="white" stroke="white" stroke-width="0.3"/>
<ellipse cx="12.5" cy="9" rx="0.75" ry="0.749996" fill="white"/>
<path d="M17 9.00004C17 4.60597 13.4335 1.03949 9.05911 1.00008C4.62562 0.980376 1 4.56657 1 9.00004C1 13.4138 4.60591 17 9 17C13.3941 17 17 13.4138 17 9.00004ZM6.26108 14.4187C7.00985 14.7931 7.81773 15.0099 8.64532 15.0493V16.2906C7.60099 16.2512 6.57636 15.9754 5.63054 15.4828L6.26108 14.4187ZM9.35468 15.0493C10.1823 15.0099 10.9901 14.7931 11.7389 14.4187L12.3695 15.5025C11.4433 15.9951 10.4187 16.2709 9.37438 16.3103L9.35468 15.0493ZM9 14.3793C6.00493 14.3793 3.62069 11.9557 3.62069 9.00004C3.62069 6.02469 6.04433 3.60105 9.03941 3.62076C11.9754 3.64046 14.3793 6.0641 14.3596 9.00004C14.3793 12.0345 11.9163 14.3793 9 14.3793ZM1.70936 9.33501H2.95074C2.99015 10.1626 3.2069 10.9705 3.58128 11.7192L2.51724 12.3498C2.02463 11.4237 1.74877 10.399 1.70936 9.33501ZM2.51724 5.6503L3.60099 6.26114C3.2266 7.0099 3.00985 7.81778 2.97044 8.64536H1.70936C1.74877 7.60103 2.02463 6.57641 2.51724 5.6503ZM11.7389 3.58135C10.9901 3.20697 10.1823 2.99022 9.35468 2.95081V1.70944C10.399 1.74885 11.4236 2.02471 12.3498 2.51731L11.7389 3.58135ZM8.66503 2.95081C7.83744 2.99022 7.02956 3.20697 6.28079 3.58135L5.65025 2.51731C6.57635 2.02471 7.60099 1.74885 8.64532 1.70944L8.66503 2.95081ZM16.2906 8.64536H15.0493C15.0099 7.81778 14.7931 7.0099 14.4187 6.26114L15.5025 5.6306C15.9754 6.57641 16.2512 7.60103 16.2906 8.64536ZM15.0493 9.33501H16.2906C16.2512 10.3793 15.9754 11.404 15.4828 12.3498L14.399 11.7389C14.7931 10.9902 15.0099 10.1823 15.0493 9.33501ZM15.1478 5.05917L14.0837 5.67001C13.6305 4.98036 13.0394 4.38923 12.33 3.91632L12.9409 2.83258C13.8276 3.42371 14.5764 4.17248 15.1478 5.05917ZM5.05911 2.85229L5.66995 3.93603C4.9803 4.38923 4.38916 4.98036 3.91626 5.68971L2.85222 5.05917C3.42365 4.17248 4.17241 3.42371 5.05911 2.85229ZM2.85222 12.9409L3.93596 12.3301C4.38916 13.0197 4.9803 13.6109 5.68966 14.0838L5.05911 15.1478C4.17241 14.5764 3.42365 13.8276 2.85222 12.9409ZM12.9409 15.1478L12.33 14.0838C13.0197 13.6306 13.6108 13.0394 14.0837 12.3301L15.1478 12.9409C14.5764 13.8276 13.8276 14.5764 12.9409 15.1478Z" fill="white" stroke="white" stroke-width="0.5"/>
</svg>
