<svg width="16" height="16" viewBox="0 0 16 16" fill="none" xmlns="http://www.w3.org/2000/svg">
<g clip-path="url(#clip0_6218_46865)">
<path d="M14.5938 2H12.1895C11.5828 2 11.0595 2.37212 10.8636 2.92308H5.13637C4.94047 2.37212 4.41716 2 3.81047 2H1.40625C0.630844 2 0 2.62114 0 3.38462V8.71182C0 9.16631 0.133938 9.60585 0.387313 9.98295C1.21047 11.2079 2.34725 12.2259 3.67478 12.927C5.00391 13.629 6.49953 14 8 14C9.50047 14 10.9961 13.629 12.3252 12.927C13.6528 12.2259 14.7895 11.2078 15.6127 9.98289C15.8661 9.60582 16 9.16628 16 8.71178V3.38462C16 2.62114 15.3692 2 14.5938 2ZM9.51169 3.84615H10.6448L10.5181 4.40782C10.47 4.62062 10.2819 4.76923 10.0605 4.76923H9.44225L9.51169 3.84615ZM8.57162 3.84615L8.50219 4.76923H7.49781L7.42837 3.84615H8.57162ZM6.48831 3.84615L6.55775 4.76923H5.93953C5.71816 4.76923 5.52997 4.62062 5.48194 4.40782L5.35519 3.84615H6.48831ZM15.0625 8.71182C15.0625 8.98462 14.9824 9.24803 14.8308 9.47357C13.3146 11.7299 10.7611 13.0769 8 13.0769C5.23894 13.0769 2.68537 11.7299 1.16916 9.4736C1.01759 9.24803 0.9375 8.98462 0.9375 8.71182V3.38462C0.9375 3.13012 1.14778 2.92308 1.40625 2.92308H3.81047C4.03184 2.92308 4.22003 3.07169 4.26806 3.28449L4.56678 4.60803C4.71084 5.24646 5.27534 5.69231 5.93953 5.69231H10.0605C10.7247 5.69231 11.2892 5.24646 11.4332 4.60806L11.7319 3.28449C11.78 3.07169 11.9681 2.92308 12.1895 2.92308H14.5938C14.8522 2.92308 15.0625 3.13012 15.0625 3.38462V8.71182Z" fill="white" stroke="white" stroke-width="0.3"/>
<path d="M7.99816 12.1535C8.25711 12.1535 8.46703 11.9469 8.46703 11.692C8.46703 11.4371 8.25711 11.2305 7.99816 11.2305C7.73921 11.2305 7.5293 11.4371 7.5293 11.692C7.5293 11.9469 7.73921 12.1535 7.99816 12.1535Z" fill="white" stroke="white" stroke-width="0.3"/>
<path d="M5.82629 11.7981C6.08523 11.7981 6.29515 11.5914 6.29515 11.3365C6.29515 11.0816 6.08523 10.875 5.82629 10.875C5.56734 10.875 5.35742 11.0816 5.35742 11.3365C5.35742 11.5914 5.56734 11.7981 5.82629 11.7981Z" fill="white" stroke="white" stroke-width="0.3"/>
<path d="M3.88488 10.7707C4.14383 10.7707 4.35374 10.5641 4.35374 10.3092C4.35374 10.0543 4.14383 9.84766 3.88488 9.84766C3.62593 9.84766 3.41602 10.0543 3.41602 10.3092C3.41602 10.5641 3.62593 10.7707 3.88488 10.7707Z" fill="white" stroke="white" stroke-width="0.3"/>
<path opacity="0.6" d="M2.37316 9.17698C2.63211 9.17698 2.84203 8.97035 2.84203 8.71544C2.84203 8.46054 2.63211 8.25391 2.37316 8.25391C2.11421 8.25391 1.9043 8.46054 1.9043 8.71544C1.9043 8.97035 2.11421 9.17698 2.37316 9.17698Z" fill="white" stroke="white" stroke-width="0.3"/>
<path d="M10.172 11.7981C10.4309 11.7981 10.6409 11.5914 10.6409 11.3365C10.6409 11.0816 10.4309 10.875 10.172 10.875C9.91304 10.875 9.70312 11.0816 9.70312 11.3365C9.70312 11.5914 9.91304 11.7981 10.172 11.7981Z" fill="white" stroke="white" stroke-width="0.3"/>
<path d="M12.1173 10.7707C12.3762 10.7707 12.5862 10.5641 12.5862 10.3092C12.5862 10.0543 12.3762 9.84766 12.1173 9.84766C11.8584 9.84766 11.6484 10.0543 11.6484 10.3092C11.6484 10.5641 11.8584 10.7707 12.1173 10.7707Z" fill="white" stroke="white" stroke-width="0.3"/>
<path d="M13.6232 9.17698C13.8821 9.17698 14.092 8.97035 14.092 8.71544C14.092 8.46054 13.8821 8.25391 13.6232 8.25391C13.3642 8.25391 13.1543 8.46054 13.1543 8.71544C13.1543 8.97035 13.3642 9.17698 13.6232 9.17698Z" fill="white" stroke="white" stroke-width="0.3"/>
<path d="M10.498 6.61328H5.49805C5.23917 6.61328 5.0293 6.81993 5.0293 7.07482C5.0293 7.32971 5.23917 7.53636 5.49805 7.53636H10.498C10.7569 7.53636 10.9668 7.32971 10.9668 7.07482C10.9668 6.81993 10.7569 6.61328 10.498 6.61328Z" fill="white" stroke="white" stroke-width="0.3"/>
<path d="M7.99816 8.46094C7.73922 8.46094 7.5293 8.66758 7.5293 8.92248V9.84555C7.5293 10.1004 7.73922 10.3071 7.99816 10.3071C8.2571 10.3071 8.46703 10.1004 8.46703 9.84555V8.92248C8.46703 8.66758 8.2571 8.46094 7.99816 8.46094Z" fill="white" stroke="white" stroke-width="0.3"/>
<path d="M3.77975 4.30529C3.77975 4.0504 3.56983 3.84375 3.31089 3.84375H2.37316C2.11422 3.84375 1.9043 4.0504 1.9043 4.30529V5.53606C1.9043 5.79095 2.11422 5.9976 2.37316 5.9976C2.6321 5.9976 2.84203 5.79095 2.84203 5.53606V4.76683H3.31089C3.56983 4.76683 3.77975 4.56018 3.77975 4.30529Z" fill="white" stroke="white" stroke-width="0.3"/>
<path d="M13.6273 3.84375H12.6896C12.4306 3.84375 12.2207 4.0504 12.2207 4.30529C12.2207 4.56018 12.4306 4.76683 12.6896 4.76683H13.1584V5.53606C13.1584 5.79095 13.3684 5.9976 13.6273 5.9976C13.8862 5.9976 14.0962 5.79095 14.0962 5.53606V4.30529C14.0962 4.0504 13.8862 3.84375 13.6273 3.84375Z" fill="white" stroke="white" stroke-width="0.3"/>
</g>
<defs>
<clipPath id="clip0_6218_46865">
<rect width="16" height="16" fill="white"/>
</clipPath>
</defs>
</svg>
