<svg width="16" height="16" viewBox="0 0 16 16" fill="none" xmlns="http://www.w3.org/2000/svg">
<g clip-path="url(#clip0_6218_46861)">
<path d="M4.99005 11.647C4.7879 11.647 4.58575 11.6181 4.38367 11.5602C4.18565 11.5023 4.0041 11.401 3.83908 11.2562C3.73326 11.1714 3.65484 11.0787 3.59741 10.9843C3.30498 10.504 3.84635 9.87176 4.34653 10.1416C4.41973 10.1964 4.50534 10.2478 4.58781 10.2864C4.67036 10.3346 4.7673 10.3587 4.87864 10.3587C5.02306 10.3587 5.13447 10.3105 5.2128 10.214C5.29535 10.1175 5.33655 9.98479 5.33655 9.81591V7.34467C5.33655 7.00666 5.61642 6.73264 5.96154 6.73264C6.30673 6.73264 6.58653 7.00666 6.58653 7.34467V9.83762C6.58653 10.4504 6.44211 10.9064 6.15335 11.2056C5.8646 11.4999 5.47683 11.647 4.99005 11.647Z" fill="white"/>
<path fill-rule="evenodd" clip-rule="evenodd" d="M7.66185 1.07854C8.38202 0.67136 9.2378 0.560509 10.0413 0.770362L13.6772 1.72442C14.4802 1.93614 15.1647 2.45112 15.5805 3.15642C15.6877 3.33832 15.7749 3.52904 15.8414 3.72543L15.8399 3.72637C16.0314 4.29101 16.053 4.90259 15.8946 5.48617L15.8952 5.48664L14.2715 11.421C14.2688 11.4307 14.2659 11.4402 14.2628 11.4494C14.0419 12.2238 13.5199 12.8832 12.8083 13.2856C12.0881 13.6928 11.2325 13.8036 10.4291 13.5939L10.4294 13.593L9.80069 13.428C9.64433 13.8002 9.41331 14.1423 9.11712 14.4324C8.52912 15.0082 7.73199 15.3321 6.90048 15.3332V15.3322H3.13675C2.30516 15.3312 1.50788 15.0073 0.919875 14.4314C0.331792 13.8556 0.000995453 13.0748 0 12.2604V6.1167C0.000995453 5.30232 0.331792 4.52154 0.919875 3.94567C1.50788 3.3698 2.30516 3.04585 3.13675 3.04488H6.1715L6.19953 2.94246C6.41577 2.15606 6.9416 1.48575 7.66185 1.07854ZM7.46521 3.09559C8.08698 3.20758 8.66458 3.5018 9.11789 3.94567C9.26951 4.09418 9.40405 4.25633 9.52021 4.42916L9.51906 4.43045C9.63759 4.60673 9.73714 4.79414 9.81616 4.98956L9.95629 4.78021C10.2359 4.36264 10.7575 4.16786 11.2499 4.29708C11.7424 4.42631 12.0947 4.8504 12.1236 5.3489L12.3206 8.7443C12.3473 9.20527 11.9058 9.55694 11.4504 9.43743C11.1248 9.352 10.9094 9.04931 10.9403 8.7206L10.966 8.44761C10.9708 8.39639 10.9372 8.34924 10.8865 8.33593L10.0377 8.1132V12.2181L10.7545 12.4062C11.2367 12.5327 11.7504 12.4665 12.1827 12.2221C12.2491 12.1845 12.3129 12.1431 12.3736 12.0984C12.707 11.8523 12.9492 11.503 13.0585 11.104L13.0592 11.1042L14.6829 5.17017L14.6821 5.16998C14.8112 4.69791 14.7435 4.19495 14.4939 3.77172C14.2445 3.34849 13.8335 3.03963 13.3515 2.91305L13.352 2.91117L9.71654 1.95722C9.23444 1.83071 8.72071 1.89694 8.28845 2.14135C7.90742 2.35677 7.61713 2.69506 7.46521 3.09559ZM8.78296 6.53283L8.78204 6.5342V8.65746L8.78296 8.65726V12.2617H8.78219C8.78212 12.6748 8.64046 13.0735 8.38355 13.3957C8.36747 13.4159 8.35093 13.4358 8.33393 13.4553C8.3216 13.4695 8.30905 13.4834 8.29626 13.4973C8.27535 13.5199 8.25384 13.542 8.23171 13.5636C7.87878 13.9093 7.40004 14.1035 6.90094 14.1035H3.13675C2.63764 14.1035 2.15891 13.9093 1.80598 13.5636C1.45298 13.218 1.25473 12.7492 1.25473 12.2604V6.1167C1.25473 5.62789 1.45298 5.15909 1.80598 4.81345C2.15891 4.46779 2.63764 4.27361 3.13675 4.27361H6.90048V4.27556C7.39951 4.27566 7.87809 4.46982 8.23094 4.8154C8.58387 5.16096 8.78212 5.62964 8.78219 6.11833H8.78296V6.53283ZM10.0377 7.12484C10.0471 7.1302 10.0574 7.13446 10.0685 7.13738L10.8059 7.33087C10.8854 7.35172 10.9635 7.29326 10.9638 7.21269L10.9697 5.77215C10.9703 5.64649 10.8007 5.6012 10.736 5.70972L10.0377 6.88124V7.12484Z" fill="white"/>
</g>
<defs>
<clipPath id="clip0_6218_46861">
<rect width="16" height="16" fill="white" transform="matrix(-1 0 0 1 16 0)"/>
</clipPath>
</defs>
</svg>
