<svg width="22" height="24" viewBox="0 0 22 24" fill="none" xmlns="http://www.w3.org/2000/svg">
<path d="M21.1834 2.86013C20.5045 1.80313 19.1468 1.05702 16.9866 0.559609C13.0299 -0.186536 8.9701 -0.186536 5.01337 0.559609C2.85325 1.05702 1.49546 1.74096 0.816561 2.86013C-0.29436 4.60106 -0.0474885 7.15027 0.261101 10.0726C0.322818 10.6321 0.384536 11.1917 0.446253 11.6891C0.577806 13.4618 0.804436 15.2261 1.12515 16.9741C1.68061 19.9586 2.29779 21.0155 2.72981 21.5751C4.51963 23.8135 9.51877 24 11 24C12.4812 24 17.4804 23.8135 19.2702 21.5751C19.7022 21.0155 20.3194 20.0207 20.8749 16.9741C21.3069 14.9223 21.492 12.7461 21.6155 11.6891C21.6849 11.1528 21.7261 10.6132 21.7389 10.0726C22.0475 7.15027 22.2944 4.60106 21.1834 2.86013ZM20.9366 10.0104C20.8648 10.5672 20.8236 11.1277 20.8131 11.6891C20.6897 12.7461 20.5045 14.8601 20.1342 16.9119C19.5788 19.772 19.0233 20.7047 18.653 21.1399C17.0483 23.1295 11.9875 23.2539 11 23.2539C10.0125 23.2539 4.95165 23.1295 3.40871 21.1399C3.0384 20.7047 2.48294 19.7098 1.92748 16.9119C1.61128 15.1841 1.38468 13.4408 1.24859 11.6891C1.17678 11.1323 1.13557 10.5718 1.12515 10.0104C0.816561 7.21245 0.56969 4.78758 1.55717 3.29536C2.11264 2.42489 3.34699 1.80313 5.26024 1.3679C7.16987 0.986529 9.11559 0.819706 11.0617 0.870489C13.0102 0.837826 14.9562 1.02553 16.8632 1.43007C18.7764 1.86531 19.9491 2.48707 20.5663 3.35753C21.492 4.84976 21.2452 7.21245 20.9366 10.0104ZM11 2.05184C15.2585 2.05184 18.7147 2.73577 19.5171 3.97929C20.4428 5.40935 19.8874 8.51815 19.5788 11.627C19.2702 14.7358 18.653 19.2124 17.6655 20.456C16.8015 21.5751 13.7156 22.1347 11 22.1347C8.28442 22.1347 5.19853 21.5751 4.33448 20.456C3.34699 19.2124 2.72981 14.7358 2.42122 11.627C2.11263 8.51815 1.61889 5.40935 2.48294 3.97929C3.28527 2.73577 6.74147 2.05184 11 2.05184ZM4.70478 6.34199C4.61765 6.40217 4.55259 6.48957 4.51963 6.59069L4.39619 7.15028V7.46116C4.45791 7.64769 5.01337 7.70986 5.01337 7.70986C5.49571 7.78741 5.94566 8.00326 6.30945 8.33162C6.42434 8.49126 6.50553 8.67294 6.54799 8.86544C6.59045 9.05793 6.59328 9.25715 6.55632 9.45079L5.63055 14.5492C5.55784 14.8204 5.43193 15.0741 5.26024 15.2953C5.06191 15.4414 4.82647 15.5276 4.58135 15.544C4.45473 15.5342 4.32765 15.5556 4.21104 15.6062C4.0876 15.6684 4.02589 15.9171 4.02589 15.9171L3.96417 16.228C3.95493 16.3156 3.9768 16.4037 4.02589 16.4767C4.11024 16.5547 4.22 16.5989 4.33448 16.601L9.51877 16.6632C9.61214 16.6495 9.69861 16.6058 9.76533 16.5385C9.83205 16.4713 9.87545 16.3842 9.88908 16.2902L9.9508 15.7928C9.96003 15.7051 9.93817 15.617 9.88908 15.544C9.82736 15.4197 9.76564 15.4197 9.51877 15.4197C9.29619 15.3542 9.08713 15.2489 8.9016 15.1088C8.80914 15.0113 8.74345 14.8913 8.71099 14.7605C8.67853 14.6296 8.6804 14.4926 8.71644 14.3627L9.21018 11.8135C9.21018 11.8135 9.2719 11.627 9.39534 11.627C9.51877 11.627 9.58049 11.6891 9.64221 11.8135L12.1109 16.2902C12.1571 16.3837 12.2198 16.468 12.2961 16.5389C12.4272 16.6167 12.5759 16.6595 12.7281 16.6632L16.9249 16.601C17.0318 16.6173 17.141 16.5953 17.2335 16.5389C17.3087 16.444 17.371 16.3395 17.4187 16.228L17.4804 15.8549C17.5109 15.8089 17.5272 15.7548 17.5272 15.6995C17.5272 15.6442 17.5109 15.5901 17.4804 15.544C17.3569 15.3575 17.0483 15.2953 16.6163 15.171C16.2868 15.0924 15.9868 14.9197 15.7523 14.6736C15.6288 14.5492 15.7523 14.2384 15.7523 14.2384L17.1718 8.45597C17.2129 8.2586 17.3223 8.08233 17.4804 7.95856C17.7153 7.77284 17.99 7.64508 18.2827 7.58551C18.3755 7.56994 18.4615 7.52661 18.5296 7.46116C18.5913 7.39898 18.5913 7.3368 18.653 7.27463L18.8382 6.65287C18.8474 6.56522 18.8255 6.47712 18.7764 6.40416C18.7147 6.34199 18.4679 6.34199 18.4679 6.34199H13.6539C13.5394 6.3441 13.4296 6.38833 13.3453 6.46634C13.269 6.53719 13.2063 6.62148 13.1601 6.71504L13.0367 7.21245V7.46116C13.0984 7.52333 13.1601 7.58551 13.2218 7.58551L13.407 7.64768C13.6068 7.69218 13.7958 7.77676 13.9625 7.89639C14.1476 8.08292 14.0859 8.58033 14.0859 8.58033L13.407 11.9378L10.8766 7.0881C10.8107 6.88585 10.6805 6.71107 10.5063 6.59069C10.4154 6.50551 10.3085 6.4396 10.1919 6.39688C10.0753 6.35415 9.95129 6.33548 9.82736 6.34199H5.07509C5.01823 6.31097 4.9546 6.29472 4.88994 6.29472C4.82528 6.29472 4.76164 6.31097 4.70478 6.34199Z" fill="#2393F2"/>
</svg>
