<svg width="24" height="24" viewBox="0 0 24 24" fill="none" xmlns="http://www.w3.org/2000/svg">
<g clip-path="url(#clip0_44_33801)">
<mask id="mask0_44_33801" style="mask-type:luminance" maskUnits="userSpaceOnUse" x="0" y="0" width="24" height="24">
<path d="M24 0H0V24H24V0Z" fill="white"/>
</mask>
<g mask="url(#mask0_44_33801)">
<path d="M8.24997 14.0986C8.16174 14.0986 8.07451 14.1211 7.99786 14.1645C7.92134 14.2077 7.85755 14.2706 7.81509 14.3474C7.80129 14.3714 7.67529 14.5865 7.45984 14.8C7.23084 15.0271 6.91982 15.2339 6.55065 15.2355C6.20442 15.2143 5.88376 15.0691 5.65689 14.8348C5.4295 14.6001 5.31462 14.2952 5.33284 13.9869L5.3331 13.978C5.3331 13.5557 5.60729 12.9875 6.05404 12.3888C6.4952 11.7976 7.08428 11.2034 7.67018 10.7339C7.82966 10.6072 8.03558 10.5361 8.25038 10.5361C8.46521 10.5361 8.67115 10.6072 8.83064 10.734C9.41651 11.2034 10.0056 11.7977 10.4467 12.389C10.8935 12.9879 11.1677 13.556 11.1677 13.978L11.168 13.9869C11.1862 14.2952 11.0713 14.6001 10.8439 14.8348C10.617 15.0691 10.2964 15.2143 9.95012 15.2355C9.58077 15.2339 9.26976 15.027 9.04116 14.8002C8.92789 14.6878 8.83919 14.5746 8.7787 14.489C8.74854 14.4463 8.72566 14.4109 8.7105 14.3864C8.70291 14.3741 8.69735 14.3647 8.69385 14.3586L8.69288 14.3569L8.68877 14.3493C8.64617 14.2713 8.58168 14.2076 8.50418 14.164C8.42686 14.1205 8.33886 14.0982 8.24997 14.0986ZM8.98419 16.2591C8.90396 16.1588 8.84735 16.0178 8.80938 15.825C9.14591 16.0344 9.54188 16.1519 9.95109 16.161L9.96028 16.1609C10.5604 16.1375 11.1286 15.8969 11.5398 15.4882C11.9506 15.0797 12.1713 14.536 12.1493 13.975C12.1481 13.2409 11.7082 12.4452 11.1701 11.751C10.6265 11.0498 9.96077 10.4245 9.46577 10.0279C9.12672 9.75852 8.69482 9.61133 8.25021 9.61133C7.80561 9.61133 7.37418 9.75822 7.03513 10.0276C6.54031 10.4243 5.87415 11.05 5.33063 11.7512C4.79256 12.4454 4.3527 13.241 4.35148 13.975C4.32947 14.536 4.55016 15.0797 4.96101 15.4882C5.37216 15.8969 5.94035 16.1375 6.54048 16.1609L6.54968 16.161C6.95893 16.1519 7.35495 16.0344 7.69151 15.8249C7.65354 16.0183 7.5969 16.1594 7.51663 16.2597C7.40353 16.401 7.22154 16.4866 6.88715 16.4866H6.20553C6.07931 16.4866 5.95595 16.5325 5.86311 16.6177C5.76985 16.7033 5.71472 16.8223 5.71472 16.9494C5.71472 17.0764 5.76985 17.1954 5.86311 17.281C5.95594 17.3662 6.07931 17.4121 6.20553 17.4121H10.2953C10.4215 17.4121 10.5448 17.3662 10.6377 17.281C10.7309 17.1954 10.7861 17.0764 10.7861 16.9494C10.7861 16.8223 10.7309 16.7033 10.6377 16.6177C10.5448 16.5325 10.4215 16.4866 10.2953 16.4866H9.61362C9.27941 16.4866 9.09736 16.4007 8.98419 16.2591Z" fill="white"/>
<path d="M8.24997 14.0986C8.16174 14.0986 8.07451 14.1211 7.99786 14.1645C7.92134 14.2077 7.85755 14.2706 7.81509 14.3474C7.80129 14.3714 7.67529 14.5865 7.45984 14.8C7.23084 15.0271 6.91982 15.2339 6.55065 15.2355C6.20442 15.2143 5.88376 15.0691 5.65689 14.8348C5.4295 14.6001 5.31462 14.2952 5.33284 13.9869L5.3331 13.978C5.3331 13.5557 5.60729 12.9875 6.05404 12.3888C6.4952 11.7976 7.08428 11.2034 7.67018 10.7339C7.82966 10.6072 8.03558 10.5361 8.25038 10.5361C8.46521 10.5361 8.67115 10.6072 8.83064 10.734C9.41651 11.2034 10.0056 11.7977 10.4467 12.389C10.8935 12.9879 11.1677 13.556 11.1677 13.978L11.168 13.9869C11.1862 14.2952 11.0713 14.6001 10.8439 14.8348C10.617 15.0691 10.2964 15.2143 9.95012 15.2355C9.58077 15.2339 9.26976 15.027 9.04116 14.8002C8.92789 14.6878 8.83919 14.5746 8.7787 14.489C8.74854 14.4463 8.72566 14.4109 8.7105 14.3864C8.70291 14.3741 8.69735 14.3647 8.69385 14.3586L8.69288 14.3569L8.68877 14.3493C8.64617 14.2713 8.58168 14.2076 8.50418 14.164C8.42686 14.1205 8.33886 14.0982 8.24997 14.0986ZM8.24997 14.0986C8.25011 14.0986 8.24983 14.0986 8.24997 14.0986ZM8.24997 14.0986L8.25038 14.2486M5.86311 17.281C5.76985 17.1954 5.71472 17.0764 5.71472 16.9494C5.71472 16.8223 5.76985 16.7033 5.86311 16.6177C5.95595 16.5325 6.07931 16.4866 6.20553 16.4866H6.88715C7.22154 16.4866 7.40353 16.401 7.51663 16.2597C7.5969 16.1594 7.65354 16.0183 7.69151 15.8249C7.35495 16.0344 6.95893 16.1519 6.54968 16.161L6.54048 16.1609C5.94035 16.1375 5.37216 15.8969 4.96101 15.4882C4.55016 15.0797 4.32947 14.536 4.35148 13.975C4.3527 13.241 4.79256 12.4454 5.33063 11.7512C5.87415 11.05 6.54031 10.4243 7.03513 10.0276C7.37418 9.75822 7.80561 9.61133 8.25021 9.61133C8.69482 9.61133 9.12672 9.75852 9.46577 10.0279C9.96077 10.4245 10.6265 11.0498 11.1701 11.751C11.7082 12.4452 12.1481 13.2409 12.1493 13.975C12.1713 14.536 11.9506 15.0797 11.5398 15.4882C11.1286 15.8969 10.5604 16.1375 9.96028 16.1609L9.95109 16.161C9.54188 16.1519 9.14591 16.0344 8.80938 15.825C8.84735 16.0178 8.90396 16.1588 8.98419 16.2591C9.09736 16.4007 9.27941 16.4866 9.61362 16.4866H10.2953C10.4215 16.4866 10.5448 16.5325 10.6377 16.6177C10.7309 16.7033 10.7861 16.8223 10.7861 16.9494C10.7861 17.0764 10.7309 17.1954 10.6377 17.281C10.5448 17.3662 10.4215 17.4121 10.2953 17.4121H6.20553C6.07931 17.4121 5.95594 17.3662 5.86311 17.281ZM5.86311 17.281L5.96454 17.1705" stroke="white" stroke-width="0.3"/>
<path d="M20.4682 1.9636L14.7816 0.217416C13.5264 -0.164865 12.1713 -0.0396186 11.0074 0.566253C9.84357 1.17212 8.96374 2.21029 8.55692 3.45776L8.3689 3.99682H5.00054C3.6748 3.99841 2.40382 4.52576 1.46638 5.46319C0.528939 6.40063 0.00158803 7.67161 0 8.99735V18.9984C0.00158803 20.3242 0.528939 21.5951 1.46638 22.5326C2.40382 23.47 3.6748 23.9974 5.00054 23.9989H11.0012C11.7588 23.9963 12.5058 23.8207 13.1852 23.4855C13.8646 23.1503 14.4585 22.6643 14.9216 22.0647C15.1498 22.0979 15.3801 22.1152 15.6107 22.1167C16.6846 22.1176 17.73 21.771 18.5907 21.1287C19.4514 20.4865 20.0812 19.5831 20.3862 18.5534L23.8026 8.15326C24.1675 6.89042 24.0228 5.53483 23.3993 4.37754C22.7759 3.22026 21.7235 2.35358 20.4682 1.9636ZM11.0012 21.9987H5.00054C4.2048 21.9987 3.44166 21.6826 2.87899 21.12C2.31632 20.5573 2.00022 19.7942 2.00022 18.9984V8.99735C2.00022 8.20162 2.31632 7.43847 2.87899 6.8758C3.44166 6.31314 4.2048 5.99703 5.00054 5.99703H11.0012C11.7969 5.99703 12.5601 6.31314 13.1227 6.8758C13.6854 7.43847 14.0015 8.20162 14.0015 8.99735V18.9984C14.0015 19.7942 13.6854 20.5573 13.1227 21.12C12.5601 21.6826 11.7969 21.9987 11.0012 21.9987ZM21.8894 7.5602L18.477 17.9613C18.3074 18.5367 17.9688 19.0478 17.5052 19.4284C17.0415 19.809 16.4741 20.0414 15.8767 20.0955C15.9588 19.7356 16.0007 19.3676 16.0017 18.9984V8.99735C16.0001 7.67161 15.4728 6.40063 14.5353 5.46319C13.5979 4.52576 12.3269 3.99841 11.0012 3.99682H10.4941C10.7523 3.26932 11.2809 2.66931 11.9701 2.32155C12.6593 1.9738 13.456 1.90505 14.1945 2.12962L19.8811 3.87581C20.6301 4.10693 21.2592 4.62144 21.6344 5.30969C22.0095 5.99793 22.101 6.80547 21.8894 7.5602Z" fill="white"/>
</g>
</g>
<defs>
<clipPath id="clip0_44_33801">
<rect width="24" height="24" fill="white"/>
</clipPath>
</defs>
</svg>
