<svg width="24" height="24" viewBox="0 0 24 24" fill="none" xmlns="http://www.w3.org/2000/svg">
<g clip-path="url(#clip0_44_33802)">
<path d="M12 23.25C18.2132 23.25 23.25 18.2132 23.25 12C23.25 5.7868 18.2132 0.75 12 0.75C5.7868 0.75 0.75 5.7868 0.75 12C0.75 18.2132 5.7868 23.25 12 23.25Z" stroke="white" stroke-width="1.5"/>
<path d="M12 17.5C15.0376 17.5 17.5 15.0376 17.5 12C17.5 8.96243 15.0376 6.5 12 6.5C8.96243 6.5 6.5 8.96243 6.5 12C6.5 15.0376 8.96243 17.5 12 17.5Z" stroke="white"/>
<path d="M11.75 6.5V17.5" stroke="white" stroke-linecap="round"/>
<path d="M17.5 11.75H6.5" stroke="white" stroke-linecap="round"/>
<path d="M15.7148 7.93359L7.93665 15.7117" stroke="white" stroke-linecap="round"/>
<path d="M16.0663 15.7108L8.28815 7.93262" stroke="white" stroke-linecap="round"/>
<path fill-rule="evenodd" clip-rule="evenodd" d="M14.333 1.89686C14.528 1.70137 14.8446 1.701 15.0401 1.89603C15.2356 2.09106 15.2359 2.40765 15.0409 2.60314L12.4617 5.18844C12.4817 5.33766 12.4344 5.49417 12.3197 5.60885C12.1244 5.80411 11.8079 5.80411 11.6126 5.60885L8.60738 2.60364C8.41212 2.40838 8.41212 2.0918 8.60738 1.89654C8.80265 1.70128 9.11923 1.70128 9.31449 1.89654L11.8268 4.40889L14.333 1.89686Z" fill="white"/>
</g>
<defs>
<clipPath id="clip0_44_33802">
<rect width="24" height="24" fill="white"/>
</clipPath>
</defs>
</svg>
