<svg width="16" height="16" viewBox="0 0 16 16" fill="none" xmlns="http://www.w3.org/2000/svg">
<g clip-path="url(#clip0_6218_46881)">
<path d="M13.2339 1.89415C13.3419 1.99172 13.4466 2.09257 13.5509 2.19419C13.57 2.21253 13.5892 2.23086 13.6089 2.24976C13.8962 2.52558 14.15 2.81396 14.3869 3.13417C14.4109 3.16594 14.4349 3.1977 14.4597 3.23043C15.7028 4.90253 16.2054 7.04388 15.924 9.10219C15.6712 10.7944 14.9227 12.3055 13.7515 13.5412C13.7245 13.5698 13.7245 13.5698 13.6969 13.5989C13.422 13.8875 13.1343 14.1424 12.8152 14.3804C12.7678 14.4166 12.7678 14.4166 12.7193 14.4535C11.053 15.702 8.92096 16.2064 6.87042 15.9235C5.18479 15.6698 3.67962 14.9184 2.44873 13.7426C2.42024 13.7154 2.42024 13.7154 2.39118 13.6877C2.10375 13.4118 1.84978 13.1229 1.61273 12.8026C1.58872 12.7708 1.56471 12.7391 1.53997 12.7063C0.288838 11.0235 -0.199443 8.8848 0.0733014 6.81569C0.277507 5.42526 0.836249 4.09825 1.71305 2.99989C1.73878 2.96722 1.76452 2.93454 1.79103 2.90088C2.16749 2.43342 2.60219 1.98153 3.0841 1.62348C3.10178 1.61024 3.11946 1.597 3.13767 1.58335C5.94409 -0.509423 9.91784 -0.648146 13.2339 1.89415ZM3.45194 2.63061C3.49694 2.7313 3.54676 2.80117 3.62465 2.87875C3.64606 2.90025 3.66748 2.92175 3.68955 2.9439C3.71261 2.9667 3.73568 2.98951 3.75944 3.013C3.79492 3.04848 3.79492 3.04848 3.83112 3.08468C3.90661 3.16009 3.98232 3.23526 4.05805 3.31042C4.10931 3.36155 4.16056 3.41269 4.21179 3.46385C4.33732 3.58913 4.46305 3.71422 4.58891 3.83916C4.69183 3.78938 4.78334 3.73129 4.87702 3.66551C5.68715 3.10083 6.53429 2.82546 7.49821 2.66418C7.49821 2.11026 7.49821 1.55634 7.49821 0.985635C6.00146 0.985635 4.59512 1.71371 3.45194 2.63061ZM8.50142 0.985635C8.50142 1.53955 8.50142 2.09347 8.50142 2.66418C8.86558 2.73065 8.86558 2.73065 9.23711 2.79846C10.0115 2.99893 10.722 3.32974 11.3438 3.83916C11.4436 3.7941 11.5137 3.74427 11.591 3.66685C11.6124 3.64556 11.6338 3.62428 11.6559 3.60235C11.6786 3.5794 11.7013 3.55646 11.7247 3.53283C11.7483 3.50924 11.7719 3.48565 11.7961 3.46134C11.8458 3.41153 11.8954 3.36164 11.9449 3.31167C12.021 3.23494 12.0974 3.15858 12.1738 3.08224C12.222 3.03383 12.2702 2.9854 12.3183 2.93694C12.3413 2.914 12.3643 2.89106 12.388 2.86742C12.409 2.84614 12.43 2.82485 12.4516 2.80292C12.4702 2.78419 12.4888 2.76546 12.508 2.74616C12.5548 2.69957 12.5548 2.69957 12.5477 2.63061C12.5038 2.58594 12.5038 2.58594 12.4445 2.54157C12.4219 2.52398 12.3994 2.5064 12.3762 2.48829C12.3514 2.46947 12.3266 2.45066 12.3011 2.43128C12.2755 2.41184 12.25 2.3924 12.2237 2.37238C11.2903 1.67358 10.2203 1.2221 9.07408 1.0234C9.05087 1.01936 9.02765 1.01533 9.00373 1.01117C8.83116 0.984044 8.68073 0.985635 8.50142 0.985635ZM2.68282 3.40274C2.63832 3.44684 2.63832 3.44684 2.59412 3.50634C2.57661 3.52897 2.55909 3.55161 2.54105 3.57493C2.51294 3.61225 2.51294 3.61225 2.48427 3.65033C2.4649 3.67596 2.44554 3.7016 2.42559 3.72802C1.64279 4.78181 1.04424 6.1333 1.04424 7.46482C1.59601 7.46482 2.14777 7.46482 2.71626 7.46482C2.7604 7.2211 2.80454 6.97737 2.85002 6.72626C3.0497 5.94885 3.37923 5.2356 3.88667 4.61129C3.84178 4.51111 3.79214 4.44079 3.71502 4.36315C3.69382 4.34165 3.67262 4.32016 3.65077 4.29801C3.62792 4.2752 3.60507 4.2524 3.58152 4.2289C3.55802 4.20524 3.53453 4.18159 3.51032 4.15722C3.4607 4.10736 3.411 4.05759 3.36122 4.0079C3.28479 3.93153 3.20873 3.85481 3.13269 3.77805C3.08447 3.72969 3.03623 3.68134 2.98796 3.63302C2.96511 3.60994 2.94226 3.58686 2.91871 3.56308C2.89751 3.54201 2.8763 3.52094 2.85446 3.49922C2.8358 3.48054 2.81714 3.46186 2.79791 3.44262C2.75151 3.39562 2.75151 3.39562 2.68282 3.40274ZM13.1987 3.44607C13.1787 3.46635 13.1586 3.48663 13.138 3.50752C13.1152 3.53037 13.0925 3.55322 13.069 3.57677C13.0445 3.60173 13.02 3.6267 12.9947 3.65242C12.9696 3.67776 12.9444 3.70309 12.9185 3.7292C12.8379 3.81046 12.7576 3.89195 12.6773 3.97345C12.6228 4.02845 12.5683 4.08344 12.5139 4.13841C12.3801 4.27349 12.2464 4.40875 12.113 4.54415C12.1626 4.64747 12.2204 4.73934 12.2859 4.83339C12.8484 5.64668 13.1227 6.49713 13.2834 7.46482C13.8351 7.46482 14.3869 7.46482 14.9554 7.46482C14.9271 6.99394 14.9271 6.99394 14.8509 6.53533C14.8436 6.50124 14.8363 6.46715 14.8287 6.43202C14.6045 5.42913 14.1621 4.525 13.5509 3.70488C13.5276 3.67311 13.5043 3.64135 13.4802 3.60862C13.4021 3.50271 13.4021 3.50271 13.3168 3.40274C13.2473 3.39553 13.2473 3.39553 13.1987 3.44607ZM5.22428 4.64486C5.19074 4.67308 5.1572 4.70129 5.12265 4.73036C4.69197 5.10259 4.37814 5.54926 4.12075 6.05484C4.10471 6.08531 4.08868 6.11577 4.07215 6.14716C3.58891 7.12971 3.5598 8.29385 3.88876 9.32591C4.06797 9.85548 4.32713 10.3299 4.68923 10.7548C4.71734 10.7884 4.74544 10.8221 4.7744 10.8568C5.44552 11.6394 6.49404 12.211 7.52638 12.2947C8.71869 12.3662 9.85354 12.0837 10.7754 11.2919C10.8089 11.2637 10.8424 11.2355 10.877 11.2064C11.6565 10.5327 12.2259 9.48005 12.3093 8.44367C12.3805 7.2467 12.0992 6.10742 11.3104 5.182C11.2823 5.14833 11.2542 5.11466 11.2252 5.07997C10.8545 4.64761 10.4095 4.33255 9.90591 4.07416C9.87556 4.05806 9.84522 4.04196 9.81395 4.02538C8.3334 3.2915 6.46568 3.57852 5.22428 4.64486ZM1.04424 8.47195C1.07255 8.94282 1.07255 8.94282 1.14875 9.40144C1.15606 9.43553 1.16338 9.46962 1.17092 9.50474C1.42521 10.6424 1.96263 11.6291 2.68282 12.534C2.78312 12.4888 2.85272 12.4388 2.92999 12.3606C2.95141 12.3391 2.97282 12.3176 2.99488 12.2955C3.0176 12.2723 3.04032 12.2492 3.06372 12.2253C3.08728 12.2016 3.11085 12.1778 3.13512 12.1534C3.21023 12.0776 3.28511 12.0016 3.35998 11.9256C3.41091 11.8741 3.46185 11.8226 3.51281 11.7712C3.63761 11.6452 3.76221 11.519 3.88667 11.3926C3.83708 11.2893 3.77922 11.1974 3.71369 11.1034C3.15121 10.2901 2.87691 9.43964 2.71626 8.47195C2.16449 8.47195 1.61273 8.47195 1.04424 8.47195ZM13.2834 8.47195C13.2392 8.71567 13.1951 8.9594 13.1496 9.21051C12.9499 9.98792 12.6204 10.7012 12.113 11.3255C12.1579 11.4257 12.2075 11.496 12.2846 11.5736C12.3164 11.6059 12.3164 11.6059 12.3489 11.6388C12.3717 11.6616 12.3946 11.6844 12.4181 11.7079C12.4416 11.7315 12.4651 11.7552 12.4893 11.7795C12.5389 11.8294 12.5886 11.8792 12.6384 11.9289C12.7148 12.0052 12.7909 12.082 12.8669 12.1587C12.9152 12.2071 12.9634 12.2554 13.0117 12.3038C13.0345 12.3268 13.0574 12.3499 13.0809 12.3737C13.1021 12.3948 13.1233 12.4158 13.1452 12.4375C13.1638 12.4562 13.1825 12.4749 13.2017 12.4941C13.2481 12.5411 13.2481 12.5411 13.3168 12.534C13.3613 12.4899 13.3613 12.4899 13.4055 12.4304C13.423 12.4078 13.4405 12.3852 13.4586 12.3618C13.4773 12.337 13.4961 12.3121 13.5154 12.2864C13.5347 12.2608 13.5541 12.2352 13.574 12.2088C14.3568 11.155 14.9554 9.80347 14.9554 8.47195C14.4036 8.47195 13.8519 8.47195 13.2834 8.47195ZM4.47695 12.2013C4.45419 12.224 4.43143 12.2466 4.40798 12.2699C4.38346 12.2947 4.35894 12.3194 4.33367 12.3449C4.29596 12.3827 4.29596 12.3827 4.25748 12.4212C4.20427 12.4746 4.15115 12.528 4.0981 12.5816C4.01659 12.6638 3.93473 12.7456 3.85283 12.8274C3.8013 12.8792 3.74979 12.931 3.6983 12.9828C3.67364 13.0074 3.64898 13.032 3.62358 13.0574C3.60103 13.0802 3.57848 13.1031 3.55525 13.1266C3.53525 13.1467 3.51526 13.1669 3.49466 13.1876C3.4448 13.2365 3.4448 13.2365 3.45194 13.3062C3.49587 13.3508 3.49587 13.3508 3.55514 13.3952C3.57768 13.4128 3.60023 13.4304 3.62346 13.4485C3.66064 13.4767 3.66064 13.4767 3.69856 13.5055C3.7241 13.5249 3.74964 13.5444 3.77595 13.5644C4.82565 14.3502 6.17188 14.9511 7.49821 14.9511C7.49821 14.3972 7.49821 13.8433 7.49821 13.2726C7.25544 13.2283 7.01266 13.184 6.76253 13.1383C6.02746 12.948 5.32063 12.6435 4.73025 12.1552C4.60813 12.0608 4.57606 12.1021 4.47695 12.2013ZM11.1725 12.2298C10.9327 12.4155 10.6755 12.5615 10.4075 12.7019C10.387 12.7127 10.3666 12.7235 10.3455 12.7347C9.76239 13.0386 9.15053 13.1541 8.50142 13.2726C8.50142 13.8265 8.50142 14.3804 8.50142 14.9511C9.99025 14.9511 11.4138 14.2272 12.5477 13.3062C12.5028 13.206 12.4532 13.1357 12.376 13.058C12.3548 13.0365 12.3336 13.015 12.3118 12.9929C12.2889 12.9701 12.2661 12.9473 12.2425 12.9238C12.2191 12.9001 12.1956 12.8765 12.1713 12.8521C12.1217 12.8022 12.072 12.7525 12.0222 12.7028C11.9458 12.6264 11.8698 12.5497 11.7937 12.4729C11.7455 12.4245 11.6973 12.3762 11.649 12.3279C11.6261 12.3048 11.6033 12.2817 11.5797 12.2579C11.5585 12.2369 11.5373 12.2158 11.5155 12.1941C11.4968 12.1754 11.4782 12.1567 11.4589 12.1375C11.345 12.0432 11.268 12.1534 11.1725 12.2298Z" fill="white"/>
<path fill-rule="evenodd" clip-rule="evenodd" d="M8.93214 5.22421L8.93148 5.22368C8.67321 5.01769 8.34588 4.90625 8.0097 4.90625C7.67351 4.90625 7.34618 5.01769 7.08792 5.22368L7.08719 5.22426C6.73358 5.50884 6.25833 5.95696 5.86929 6.46084C5.48786 6.95485 5.15902 7.54079 5.15731 8.09643C5.14119 8.52354 5.30895 8.93572 5.6179 9.24408C5.92727 9.55286 6.35309 9.73311 6.80104 9.75067L6.80752 9.75093L6.81401 9.75078C7.02738 9.746 7.23635 9.70178 7.42916 9.62195C7.42309 9.63138 7.41682 9.64012 7.41037 9.64821C7.39853 9.66306 7.38413 9.69104 7.36642 9.72545C7.30584 9.84316 7.20655 10.0361 7.03843 10.0361H6.55822C6.44406 10.0361 6.33131 10.0777 6.24553 10.1567C6.15914 10.2363 6.10676 10.3484 6.10676 10.4695C6.10676 10.5906 6.15914 10.7026 6.24553 10.7822C6.33131 10.8613 6.44406 10.9029 6.55822 10.9029H9.43948C9.55364 10.9029 9.66638 10.8613 9.75217 10.7822C9.83856 10.7026 9.89094 10.5906 9.89094 10.4695C9.89094 10.3484 9.83856 10.2363 9.75217 10.1567C9.66638 10.0777 9.55364 10.0361 9.43948 10.0361H8.95927C8.79461 10.0361 8.70856 9.8505 8.65371 9.73219C8.63627 9.69458 8.62198 9.66376 8.60933 9.64787C8.60299 9.63992 8.59684 9.63135 8.59087 9.62211C8.78358 9.70184 8.9924 9.746 9.20563 9.75078L9.21211 9.75093L9.21859 9.75067C9.66654 9.73311 10.0924 9.55286 10.4017 9.24408C10.7107 8.93572 10.8784 8.52354 10.8623 8.09643C10.8606 7.54069 10.5318 6.95469 10.1503 6.46067C9.76123 5.95678 9.28591 5.5087 8.93214 5.22421ZM8.42389 8.33382C8.41919 8.32619 8.41587 8.32055 8.41395 8.31721L8.41142 8.31255C8.37147 8.2391 8.31147 8.17998 8.24045 8.13986C8.16971 8.09988 8.08969 8.0796 8.00924 8.07994C7.92938 8.08004 7.85006 8.10046 7.77991 8.14026C7.71011 8.17987 7.651 8.23784 7.61119 8.30975C7.60905 8.31349 7.60465 8.32101 7.59746 8.33256C7.58749 8.34858 7.57232 8.37202 7.55226 8.40038C7.51188 8.45747 7.45304 8.53259 7.37847 8.60681C7.22653 8.75803 7.03384 8.88179 6.81529 8.88402C6.59771 8.86979 6.39838 8.77786 6.25857 8.63295C6.11804 8.48729 6.04885 8.30035 6.05986 8.11329L6.06023 8.10703V8.10077C6.06023 7.83874 6.2345 7.46087 6.54716 7.04022C6.85195 6.63015 7.2604 6.21632 7.66696 5.88924C7.7599 5.81516 7.88151 5.77246 8.00982 5.77246C8.13811 5.77246 8.25972 5.81516 8.35266 5.88923C8.75921 6.21629 9.16767 6.63024 9.47247 7.04038C9.78515 7.46111 9.95941 7.83897 9.95941 8.10077V8.10703L9.95978 8.11329C9.97079 8.30035 9.9016 8.48729 9.76106 8.63295C9.62125 8.77786 9.42193 8.86979 9.20434 8.88402C8.98566 8.88179 8.79299 8.758 8.64137 8.60695C8.56694 8.5328 8.50835 8.4578 8.46832 8.40095C8.44843 8.37269 8.43351 8.34946 8.42389 8.33382Z" fill="white"/>
</g>
<defs>
<clipPath id="clip0_6218_46881">
<rect width="16" height="16" fill="white"/>
</clipPath>
</defs>
</svg>
