<svg width="24" height="24" viewBox="0 0 24 24" fill="none" xmlns="http://www.w3.org/2000/svg">
<path d="M11.496 0H0.592068C0.500001 0 0.5 0.0920365 0.5 0.184073V12.3644C0.688938 14.9493 3.01376 15.3871 5.17419 15.3871H16.6282V17.0365C13.9573 17.0365 11.285 17.0075 8.61426 17.0511C6.81282 17.0805 5.00146 17.11 3.61605 16.6659C2.48183 16.3865 1.50907 15.8372 0.5 15.2975C1.1422 17.2205 2.33188 18.6859 3.61605 20.0591C4.97824 21.405 6.59635 22.4641 8.37502 23.174C10.3014 24.0894 12.8578 23.9974 15.5233 23.9974H22.4921C22.7726 23.9974 23.3385 24.0217 23.5 23.8156V11.4561C23.3385 10.8416 23.1791 10.257 22.4582 9.45982C21.4796 8.5255 19.4328 8.5255 17.9099 8.5255C14.4279 8.5255 10.7643 8.61753 7.37182 8.5255C7.37182 8.06773 7.2823 7.42589 7.37182 6.96815C10.0497 6.96815 12.7288 6.99699 15.4065 6.9537C17.2014 6.9247 19.0035 6.89556 20.3984 7.33388C21.5281 7.6156 22.5949 8.23747 23.5 8.7023C22.046 3.93273 15.3884 0.108553 11.496 0Z" fill="url(#paint0_linear_38_20907)"/>
<defs>
<linearGradient id="paint0_linear_38_20907" x1="23.5" y1="12" x2="0.5" y2="12" gradientUnits="userSpaceOnUse">
<stop stop-color="#A44EA0"/>
<stop offset="1" stop-color="#41C3D8"/>
</linearGradient>
</defs>
</svg>
