<svg width="52" height="12" viewBox="0 0 52 12" fill="none" xmlns="http://www.w3.org/2000/svg">
<path fill-rule="evenodd" clip-rule="evenodd" d="M17.1235 0.0801152V3.28473H5.39337C5.28772 3.28093 5.18239 3.29846 5.08355 3.33629C4.98471 3.37413 4.89436 3.4315 4.81778 3.50504C4.69913 3.65961 4.63614 3.85032 4.63915 4.04582V4.55656H17.0937V7.70108H4.62923V8.09164C4.63163 8.27576 4.69841 8.4531 4.81778 8.59236C4.95433 8.72289 5.13583 8.79472 5.3239 8.79265H17.1036V11.9973H3.64676C3.22067 12.0153 2.79548 11.9445 2.39766 11.7894C1.99985 11.6344 1.63794 11.3983 1.33448 11.096C0.816051 10.5183 0.520256 9.77205 0.500867 8.99294V3.08444C0.481749 2.23819 0.779402 1.41576 1.33448 0.781124C1.9119 0.268132 2.6593 -0.00710511 3.42843 0.0100146H17.1235V0.0801152ZM18.1159 0.0100146H22.2244V8.68249H34.7881V11.9171H18.0861V0L18.1159 0.0100146ZM46.4289 0.130186H51.3908L44.4441 5.95857L51.5 11.9672H46.3396L39.6409 6.26902V11.8871H35.6118V0.130186H39.6409V5.08732L46.4289 0.150216" fill="#2393F2"/>
</svg>
