<svg width="51" height="40" viewBox="0 0 51 40" fill="none" xmlns="http://www.w3.org/2000/svg">
<path d="M42.1586 5.43455C40.9754 3.37231 38.9011 2.23828 36.3194 2.23828H13.0337C10.4512 2.23828 8.3775 3.37306 7.19423 5.4353C5.91595 7.6632 5.88307 10.6182 7.10461 13.5448C9.34963 18.9211 16.4316 20.7137 16.7324 20.7875L17.4216 20.9555H31.9307L32.6205 20.7875C32.9207 20.7127 40.0033 18.9211 42.2475 13.5448C43.469 10.6174 43.4364 7.66246 42.1586 5.43455ZM40.1265 12.4483C39.2269 14.602 37.1246 16.0588 35.5196 16.9005C34.9276 17.21 34.3176 17.4858 33.6926 17.7266H15.6624C15.0375 17.4854 14.4275 17.2093 13.8354 16.8996C12.2304 16.0579 10.1271 14.6024 9.2277 12.4473C8.34904 10.3434 8.32731 8.29689 9.16751 6.83267C9.90578 5.54549 11.28 4.83728 13.0356 4.83728H36.3194C38.0748 4.83728 39.4482 5.54549 40.1873 6.83267C41.0269 8.29783 41.005 10.3438 40.1265 12.4483Z" fill="#204D5B"/>
<path d="M26.5451 29.5877L26.541 27.2344C26.5382 25.5424 27.5045 23.9588 29.1113 23.1014C34.228 20.3714 37.8909 13.0525 37.8909 4.45095V0H11.4615V4.45151C11.4615 13.0531 15.1246 20.3722 20.2414 23.1021C21.8481 23.9594 22.8145 25.5427 22.8118 27.2348L22.808 29.588L24.9426 31.5956L26.5451 29.5877Z" fill="#F8AC30"/>
<path d="M22.4618 29.4199H18.911C17.6085 29.4199 16.5525 30.342 16.5525 31.4794V33.7724H32.8001V31.4794C32.8001 30.342 31.7441 29.4199 30.4418 29.4199H22.4618Z" fill="#285D6D"/>
<path d="M21.9496 30.7447H17.5787C15.9752 30.7447 14.6748 31.8799 14.6748 33.28V36.1029H34.6774V33.2795C34.6774 31.8787 33.3774 30.7441 31.7735 30.7441H21.9496V30.7447Z" fill="#2D677A"/>
<path d="M26.5451 29.5877L26.541 27.2344C26.5382 25.5424 27.5045 23.9588 29.1113 23.1014C34.228 20.3714 37.8909 13.0525 37.8909 4.45095V0H11.4615V4.45151C11.4615 13.0531 15.1246 20.3722 20.2414 23.1021C21.8481 23.9594 22.8145 25.5427 22.8118 27.2348L22.808 29.588L24.9426 31.5956L26.5451 29.5877Z" fill="#265767"/>
<path d="M24.8022 29.5877L24.7982 27.2344C24.7955 25.5424 25.7618 23.9588 27.3686 23.1014C32.4851 20.3714 33.5338 13.0525 33.5338 4.45095V0H11.4615V4.45151C11.4615 13.0531 15.1246 20.3722 20.2414 23.1021C21.8481 23.9594 22.8145 25.5427 22.8118 27.2348L22.808 29.588L23.2008 31.5956L24.8022 29.5877Z" fill="#204D5B"/>
<path d="M21.1405 29.4199H18.3843C17.373 29.4199 16.553 30.342 16.553 31.4794V33.7724H29.1698V31.4794C29.1698 30.342 28.3498 29.4199 27.3384 29.4199H21.1405Z" fill="#204D5B"/>
<path d="M20.5497 30.7447H17.0191C15.7241 30.7447 14.6743 31.8799 14.6743 33.28V36.1029H30.8282V33.2795C30.8282 31.8787 29.7784 30.7441 28.4836 30.7441H20.5497V30.7447Z" fill="#295D6E"/>
<path d="M21.545 33.4238H14.675C14.4802 33.4238 14.2873 33.4611 14.1074 33.5335C13.9274 33.6059 13.7639 33.712 13.6262 33.8458C13.4885 33.9795 13.3793 34.1383 13.3047 34.3131C13.2302 34.4879 13.1919 34.6752 13.1919 34.8643V40.0003H36.1601V34.8643C36.1601 34.6752 36.1218 34.4879 36.0473 34.3131C35.9727 34.1383 35.8635 33.9795 35.7258 33.8458C35.5881 33.712 35.4246 33.6059 35.2446 33.5335C35.0647 33.4611 34.8718 33.4238 34.677 33.4238H27.8076" fill="#265868"/>
<path d="M19.9794 33.4238H14.3971C13.7315 33.4238 13.1919 34.0687 13.1919 34.8643V40.0003H31.8556V34.8643C31.8556 34.0687 31.316 33.4238 30.6505 33.4238H25.0679" fill="#204D5B"/>
<path d="M27.7774 11.4888L28.3207 14.5975C28.3334 14.6703 28.3249 14.7451 28.2962 14.8134C28.2674 14.8818 28.2196 14.9409 28.158 14.9842C28.0964 15.0275 28.0236 15.0532 27.9478 15.0584C27.872 15.0636 27.7961 15.0481 27.7289 15.0136L24.8576 13.5415C24.7991 13.5116 24.7341 13.496 24.668 13.496C24.602 13.496 24.537 13.5116 24.4785 13.5415L21.6022 15.0041C21.5348 15.0383 21.459 15.0535 21.3832 15.0481C21.3074 15.0426 21.2347 15.0167 21.1733 14.9732C21.1119 14.9297 21.0642 14.8704 21.0357 14.802C21.0071 14.7336 20.9989 14.6588 21.0118 14.5861L21.566 11.4791C21.5773 11.4159 21.5726 11.351 21.5523 11.2899C21.532 11.2289 21.4967 11.1736 21.4495 11.1287L19.1283 8.92494C19.0739 8.87333 19.0356 8.80798 19.0175 8.73628C18.9994 8.66458 19.0023 8.58939 19.0259 8.51922C19.0495 8.44905 19.0929 8.3867 19.1511 8.33922C19.2093 8.29173 19.28 8.26101 19.3552 8.25053L22.5691 7.8023C22.6346 7.79329 22.6968 7.76893 22.7504 7.73131C22.804 7.69369 22.8474 7.64395 22.8768 7.5864L24.3191 4.76123C24.3528 4.69502 24.4049 4.6393 24.4696 4.60038C24.5342 4.56146 24.6088 4.5409 24.6848 4.54102C24.7609 4.54113 24.8354 4.56193 24.8999 4.60104C24.9644 4.64016 25.0164 4.69604 25.0499 4.76235L26.4812 7.59088C26.5104 7.64845 26.5535 7.69826 26.6068 7.73604C26.6602 7.77382 26.7222 7.79841 26.7876 7.80772L29.9991 8.26641C30.0743 8.27717 30.1449 8.30814 30.203 8.35584C30.261 8.40353 30.3042 8.46604 30.3275 8.53629C30.3509 8.60655 30.3536 8.68175 30.3352 8.7534C30.3169 8.82505 30.2783 8.89029 30.2237 8.94174L27.8949 11.1388C27.8475 11.1835 27.8121 11.2388 27.7916 11.2997C27.7712 11.3607 27.7663 11.4256 27.7774 11.4888Z" fill="#34768B"/>
<path d="M37.9318 25.6125L38.0416 26.2404C38.0442 26.2551 38.0425 26.2702 38.0366 26.284C38.0308 26.2978 38.0211 26.3098 38.0087 26.3185C37.9963 26.3273 37.9815 26.3325 37.9662 26.3335C37.9509 26.3346 37.9356 26.3314 37.922 26.3244L37.3422 26.0271C37.3303 26.0211 37.3171 26.0179 37.3037 26.0179C37.2903 26.0179 37.2771 26.0211 37.2653 26.0271L36.6843 26.3226C36.6707 26.3295 36.6554 26.3326 36.6401 26.3315C36.6248 26.3303 36.6101 26.3251 36.5977 26.3163C36.5853 26.3075 36.5757 26.2956 36.5699 26.2818C36.5641 26.268 36.5624 26.2529 36.5651 26.2382L36.677 25.6106C36.6793 25.5979 36.6783 25.5848 36.6742 25.5724C36.6701 25.5601 36.663 25.5489 36.6535 25.5399L36.1847 25.0944C36.1737 25.084 36.1659 25.0708 36.1622 25.0564C36.1585 25.0419 36.1591 25.0267 36.1638 25.0125C36.1686 24.9983 36.1774 24.9857 36.1892 24.9761C36.2009 24.9665 36.2152 24.9604 36.2304 24.9583L36.8797 24.8677C36.8929 24.8659 36.9054 24.861 36.9162 24.8534C36.927 24.8458 36.9357 24.8358 36.9416 24.8242L37.2329 24.2534C37.2398 24.2401 37.2503 24.2288 37.2633 24.221C37.2763 24.2131 37.2914 24.209 37.3067 24.209C37.322 24.209 37.3371 24.2131 37.3501 24.221C37.3631 24.2288 37.3736 24.2401 37.3804 24.2534L37.6689 24.8251C37.6748 24.8367 37.6836 24.8468 37.6943 24.8544C37.7051 24.8621 37.7176 24.8671 37.7308 24.869L38.3797 24.9624C38.3949 24.9646 38.4091 24.9708 38.4208 24.9804C38.4325 24.9901 38.4412 25.0027 38.446 25.0169C38.4507 25.031 38.4512 25.0462 38.4475 25.0607C38.4438 25.0752 38.4361 25.0883 38.4251 25.0987L37.9547 25.5425C37.9454 25.5515 37.9385 25.5626 37.9345 25.5748C37.9305 25.587 37.9296 25.5999 37.9318 25.6125Z" fill="#296071"/>
<path d="M2.27232 12.5768L2.38212 13.2046C2.38469 13.2194 2.38297 13.2345 2.37716 13.2483C2.37135 13.2621 2.36167 13.274 2.34922 13.2828C2.33677 13.2915 2.32206 13.2967 2.30673 13.2978C2.29141 13.2988 2.27609 13.2957 2.26251 13.2887L1.6825 12.9914C1.67065 12.9853 1.65745 12.9821 1.64404 12.9821C1.63064 12.9821 1.61743 12.9853 1.60558 12.9914L1.02462 13.2868C1.01099 13.2937 0.995646 13.2968 0.980322 13.2957C0.964998 13.2945 0.950301 13.2893 0.937886 13.2805C0.925471 13.2717 0.915831 13.2597 0.910055 13.2459C0.904278 13.2321 0.902594 13.2169 0.905192 13.2022L1.01731 12.5747C1.01957 12.5619 1.0186 12.5488 1.01448 12.5365C1.01036 12.5241 1.00321 12.513 0.993655 12.5039L0.524806 12.0587C0.513803 12.0482 0.50603 12.035 0.502368 12.0205C0.498706 12.006 0.499301 11.9908 0.504085 11.9766C0.50887 11.9624 0.517653 11.9498 0.529439 11.9402C0.541224 11.9306 0.555541 11.9244 0.570767 11.9223L1.21981 11.8317C1.23302 11.8299 1.24558 11.825 1.2564 11.8174C1.26722 11.8099 1.27598 11.7998 1.28193 11.7882L1.57308 11.2175C1.57987 11.2041 1.59039 11.1928 1.60344 11.1849C1.61649 11.177 1.63155 11.1729 1.64693 11.1729C1.6623 11.1729 1.67737 11.177 1.69042 11.1849C1.70347 11.1928 1.71398 11.2041 1.72077 11.2175L2.00924 11.789C2.0151 11.8006 2.02381 11.8107 2.0346 11.8184C2.04539 11.826 2.05794 11.831 2.07116 11.8329L2.72001 11.9263C2.73519 11.9284 2.74944 11.9347 2.76115 11.9443C2.77286 11.9539 2.78156 11.9666 2.78628 11.9807C2.791 11.9949 2.79155 12.0101 2.78786 12.0246C2.78417 12.039 2.77639 12.0522 2.76539 12.0626L2.29481 12.5065C2.28551 12.5156 2.2786 12.5267 2.27468 12.539C2.27077 12.5512 2.26995 12.5642 2.27232 12.5768Z" fill="#296071"/>
<path d="M42.5737 32.9975L42.6835 33.6254C42.686 33.6401 42.6843 33.6552 42.6785 33.669C42.6727 33.6828 42.663 33.6948 42.6506 33.7035C42.6381 33.7122 42.6234 33.7174 42.6081 33.7185C42.5927 33.7195 42.5774 33.7164 42.5638 33.7094L41.9838 33.4121C41.972 33.406 41.9588 33.4028 41.9454 33.4028C41.932 33.4028 41.9188 33.406 41.9069 33.4121L41.3263 33.7072C41.3127 33.7141 41.2974 33.7171 41.2821 33.716C41.2668 33.7149 41.2521 33.7097 41.2397 33.7009C41.2273 33.6921 41.2177 33.6802 41.2119 33.6663C41.2062 33.6525 41.2045 33.6374 41.2071 33.6227L41.319 32.9952C41.3213 32.9824 41.3203 32.9693 41.3162 32.957C41.3121 32.9447 41.3049 32.9335 41.2954 32.9244L40.8275 32.4794C40.8165 32.4689 40.8088 32.4557 40.8052 32.4413C40.8016 32.4268 40.8022 32.4116 40.807 32.3974C40.8117 32.3833 40.8205 32.3707 40.8322 32.3611C40.844 32.3516 40.8583 32.3454 40.8734 32.3432L41.5225 32.2527C41.5357 32.2508 41.5483 32.2459 41.5591 32.2383C41.57 32.2307 41.5787 32.2206 41.5846 32.2089L41.8758 31.6384C41.8826 31.625 41.8931 31.6137 41.9061 31.6058C41.9192 31.5979 41.9342 31.5938 41.9496 31.5938C41.965 31.5938 41.9801 31.5979 41.9931 31.6058C42.0062 31.6137 42.0167 31.625 42.0235 31.6384L42.3119 32.2101C42.3178 32.2217 42.3265 32.2318 42.3373 32.2394C42.3481 32.247 42.3606 32.2519 42.3738 32.2538L43.0227 32.3472C43.0379 32.3493 43.0521 32.3556 43.0638 32.3652C43.0755 32.3748 43.0842 32.3875 43.089 32.4016C43.0937 32.4158 43.0942 32.431 43.0905 32.4455C43.0868 32.4599 43.0791 32.4731 43.0681 32.4835L42.5967 32.9269C42.5873 32.936 42.5803 32.9471 42.5763 32.9594C42.5722 32.9717 42.5713 32.9848 42.5737 32.9975Z" fill="#296071"/>
<path d="M9.17748 34.7555L9.28729 35.3834C9.28986 35.3981 9.28814 35.4132 9.28233 35.427C9.27652 35.4408 9.26684 35.4528 9.25439 35.4615C9.24194 35.4702 9.22723 35.4754 9.2119 35.4765C9.19658 35.4775 9.18126 35.4744 9.16767 35.4674L8.58767 35.1701C8.57582 35.164 8.56262 35.1608 8.54921 35.1608C8.53581 35.1608 8.5226 35.164 8.51075 35.1701L7.92978 35.4655C7.91618 35.4725 7.90084 35.4756 7.8855 35.4745C7.87017 35.4734 7.85545 35.4682 7.84302 35.4594C7.83059 35.4506 7.82094 35.4386 7.81517 35.4248C7.80939 35.411 7.80773 35.3958 7.81036 35.3811L7.92363 34.7534C7.92591 34.7406 7.92495 34.7275 7.92083 34.7152C7.9167 34.7028 7.90955 34.6917 7.89998 34.6826L7.43113 34.2372C7.42018 34.2268 7.41246 34.2135 7.40883 34.1991C7.4052 34.1846 7.40581 34.1694 7.41059 34.1553C7.41537 34.1411 7.42413 34.1285 7.43588 34.1189C7.44763 34.1094 7.4619 34.1032 7.47709 34.101L8.12613 34.0105C8.13937 34.0086 8.15194 34.0037 8.16277 33.9961C8.17359 33.9885 8.18234 33.9784 8.18825 33.9668L8.4794 33.3962C8.48619 33.3828 8.49671 33.3715 8.50976 33.3636C8.52281 33.3557 8.53788 33.3516 8.55325 33.3516C8.56862 33.3516 8.58369 33.3557 8.59674 33.3636C8.60979 33.3715 8.62031 33.3828 8.6271 33.3962L8.91556 33.9679C8.92144 33.9795 8.93015 33.9896 8.94094 33.9972C8.95173 34.0048 8.96428 34.0097 8.97748 34.0116L9.62633 34.105C9.64151 34.1071 9.65576 34.1134 9.66747 34.123C9.67918 34.1327 9.68789 34.1453 9.69261 34.1594C9.69733 34.1736 9.69787 34.1888 9.69418 34.2033C9.69049 34.2177 9.68271 34.2309 9.67172 34.2413L9.20133 34.6851C9.1918 34.694 9.18465 34.7051 9.18049 34.7174C9.17634 34.7297 9.17531 34.7427 9.17748 34.7555Z" fill="#296071"/>
<path d="M49.982 15.4023L50.0918 16.0302C50.0944 16.0449 50.0926 16.06 50.0868 16.0738C50.081 16.0877 50.0713 16.0996 50.0589 16.1084C50.0464 16.1171 50.0317 16.1223 50.0164 16.1233C50.0011 16.1244 49.9858 16.1212 49.9722 16.1143L49.3922 15.8164C49.3803 15.8102 49.3671 15.807 49.3537 15.807C49.3403 15.807 49.3271 15.8102 49.3152 15.8164L48.7343 16.1116C48.7207 16.1186 48.7054 16.1218 48.69 16.1207C48.6747 16.1196 48.66 16.1144 48.6475 16.1056C48.6351 16.0968 48.6255 16.0848 48.6197 16.0709C48.614 16.0571 48.6124 16.0419 48.6151 16.0272L48.727 15.3997C48.7293 15.3869 48.7283 15.3738 48.7242 15.3615C48.7201 15.3491 48.7129 15.338 48.7033 15.3289L48.2345 14.8835C48.2235 14.873 48.2158 14.8598 48.2122 14.8454C48.2085 14.8309 48.2092 14.8157 48.2139 14.8016C48.2187 14.7874 48.2275 14.7748 48.2392 14.7652C48.251 14.7557 48.2652 14.7495 48.2804 14.7473L48.9295 14.6568C48.9427 14.655 48.9553 14.6501 48.9661 14.6425C48.9769 14.6349 48.9857 14.6249 48.9916 14.6132L49.2829 14.0425C49.2897 14.0291 49.3003 14.0179 49.3133 14.0101C49.3263 14.0022 49.3414 13.998 49.3567 13.998C49.372 13.998 49.3871 14.0022 49.4001 14.0101C49.4131 14.0179 49.4236 14.0291 49.4304 14.0425L49.7189 14.6142C49.7248 14.6258 49.7335 14.6359 49.7443 14.6436C49.7551 14.6512 49.7676 14.6562 49.7808 14.6581L50.4297 14.7514C50.4449 14.7536 50.4591 14.7599 50.4708 14.7695C50.4825 14.7791 50.4912 14.7918 50.496 14.8059C50.5007 14.8201 50.5012 14.8353 50.4975 14.8497C50.4938 14.8642 50.4861 14.8774 50.4751 14.8878L50.0047 15.3317C49.9953 15.3408 49.9883 15.352 49.9844 15.3643C49.9804 15.3766 49.9796 15.3896 49.982 15.4023Z" fill="#296071"/>
</svg>
